<svg version="1.2" xmlns="http://www.w3.org/2000/svg" viewBox="0 0 138 40" width="138" height="40"><style>.a{fill:#efefef}.b{fill:#187db1;stroke:#fefefe;paint-order:stroke fill markers;stroke-linejoin:round;stroke-width:2}</style><path class="a" d="m56 8.2h2.6v13h-2.6z"/><path class="a" d="m60.1 16.3c0-3 2.2-5.1 5.2-5.1 3.1 0 5.3 2.1 5.3 5.1 0 3-2.2 5.1-5.3 5.1-3 0-5.2-2.1-5.2-5.1zm5.2 2.6c1.5 0 2.6-1.1 2.6-2.6 0-1.5-1.1-2.6-2.6-2.6-1.5 0-2.6 1.1-2.6 2.6 0 1.5 1.1 2.6 2.6 2.6z"/><path class="a" d="m72 17.1v-5.7h2.6v5.4c0 1.4 0.7 2.2 1.9 2.2 1.4 0 2.2-0.9 2.2-2.3v-5.3h2.7v9.8h-2.5l-0.1-1.1c-0.7 0.8-1.8 1.3-3.1 1.3-2.3 0-3.7-1.5-3.7-4.3z"/><path class="a" d="m83 16.3c0-3 2.1-5.1 4.9-5.1 1.1 0 2.1 0.3 2.9 1v-4h2.7v13h-2.3l-0.1-1c-0.9 0.8-2 1.2-3.2 1.2-3 0-4.9-2.2-4.9-5.1zm5.3 2.6c1.5 0 2.6-1 2.6-2.6 0-1.5-1.1-2.6-2.6-2.6-1.6 0-2.6 1.1-2.6 2.6 0 1.5 1 2.6 2.6 2.6z"/><path class="a" d="m94.8 11.6v-0.2h2.7l0.9 2.9 1 3.1 2.2-5.5h2l2.2 5.6 1.1-3.3 0.8-2.8h2.8v0.2l-3.3 9.6h-2.5l-1-2.5-1.1-3.1-1.2 3.1-1 2.5h-2.4z"/><path class="a" d="m110.7 16.3c0-3 2.1-5.1 5-5.1 1.2 0 2.3 0.4 3.1 1.2l0.1-1h2.3v9.8h-2.3l-0.1-1c-0.8 0.8-1.9 1.2-3.1 1.2-3 0-5-2.2-5-5.1zm5.3 2.6c1.5 0 2.6-1 2.6-2.6 0-1.5-1.1-2.6-2.6-2.6-1.5 0-2.6 1.1-2.6 2.6 0 1.5 1.1 2.6 2.6 2.6z"/><path class="a" d="m123.6 8.2h2.6v13h-2.6z"/><path class="a" d="m131.1 16.9v4.3h-2.7v-13h2.7v7.4l2.8-4.2h3v0.2l-3.2 4.5 3.5 4.9v0.2h-3.1z"/><path class="a" d="m50.5 18.9c-1.5 0-2.5-1-2.5-2.6 0-1.5 1-2.6 2.5-2.6 1 0 1.8 0.5 2.2 1.3l2.2-1.3c-0.9-1.5-2.5-2.5-4.4-2.5-3.1 0-5.2 2.2-5.2 5.1 0 3 2.1 5.2 5.2 5.2 1.9 0 3.5-1 4.4-2.5l-2.3-1.2c-0.4 0.7-1.1 1.1-2.1 1.1z"/><path class="a" d="m6 5.6c-2.7 2.7-4.3 6.5-4.3 10.7 0 4.1 1.6 7.9 4.3 10.6-1.4-3.2-2.2-6.8-2.2-10.6 0-3.8 0.8-7.5 2.2-10.7z"/><path class="a" d="m7.8 28.5c1.1 0.9 2.4 1.6 3.8 2.1-3-4-4.7-9-4.7-14.3 0-5.5 1.7-10.4 4.8-14.4q-2.1 0.7-3.9 2.1c-2 3.6-3.1 7.8-3.1 12.3 0 4.4 1.1 8.6 3.1 12.2z"/><path class="a" d="m13.2 31.1q1.7 0.5 3.4 0.5c-4.1-3.8-6.7-9.3-6.7-15.3 0-6.1 2.6-11.6 6.8-15.4q-1.8 0.1-3.5 0.5c-3.4 4-5.4 9.2-5.4 14.9 0 5.6 2 10.8 5.4 14.8z"/><path class="a" d="m10.8 16.3c0 6.1 2.8 11.6 7.2 15.3q1.3-0.1 2.6-0.4c-4.8-3.3-7.9-8.8-7.9-14.9 0-6.2 3.1-11.7 7.9-15q-1.3-0.3-2.6-0.4c-4.4 3.7-7.2 9.2-7.2 15.4z"/><path class="a" d="m13.9 16.3c0 6.1 3.3 11.5 8.2 14.4q1.1-0.4 2.1-0.9c-5-2.5-8.4-7.6-8.4-13.5 0-6 3.4-11.1 8.4-13.6q-1-0.5-2.1-0.9c-4.9 3-8.2 8.3-8.2 14.5z"/><path class="a" d="m17 16.3c0 5.7 3.5 10.6 8.5 12.7q0.7-0.5 1.4-1.1c-4.9-1.6-8.4-6.2-8.4-11.6 0-5.5 3.6-10.1 8.5-11.7q-0.7-0.6-1.5-1.1c-5 2.1-8.5 7-8.5 12.8z"/><path class="a" d="m20.1 16.3c0 5 3.4 9.3 8.1 10.4q0.6-0.6 1.1-1.3c-4.4-0.7-7.7-4.5-7.7-9.1 0-4.6 3.3-8.4 7.7-9.1q-0.5-0.7-1.1-1.3c-4.7 1.1-8.1 5.3-8.1 10.4z"/><path class="a" d="m23.4 16.3c0 3.9 3.1 7.1 7 7.3 1.2-2.2 1.9-4.7 1.9-7.4 0-2.6-0.7-5.1-1.9-7.3-3.9 0.2-7 3.4-7 7.4z"/><path fill-rule="evenodd" class="b" d="m88.5 39h-2.8v-13.3h2.8v5h1.9v-5h2.8v13.3h-2.8v-5.7h-1.9zm13.7 0h-7.5v-13.3h7.5v2.7h-4.7v2.6h3.5v2.6h-3.5v2.8h4.7zm8 0h-7.5v-13.3h2.8v10.7h4.7zm4.3 0h-2.8v-13.3h3.7q1.9 0 2.8 1.1 1 1 1 3v0.4q0 2-1 3-0.9 1.1-2.8 1.1h-0.9zm0.6-10.7h-0.6v3.5h0.6q1.3 0 1.3-1.5v-0.6q0-1.4-1.3-1.4zm12.1 10.7h-7.5v-13.3h7.5v2.6h-4.7v2.7h3.5v2.6h-3.5v2.8h4.7zm4.3 0h-2.8v-13.3h3.5q1.9 0 2.8 0.9 1 0.8 1 2.5v1.1q0 2-2 2.4v0.3q1.1 0.2 1.6 0.8 0.6 0.6 0.6 1.7v3.6h-2.8v-4q0-0.5-0.3-0.8-0.4-0.3-1.1-0.3h-0.5zm0-10.7v3.3h0.4q1.3 0 1.3-1.1v-1.1q0-1.1-1.3-1.1z"/></svg>